<?xml version="1.0" encoding="UTF-8" standalone="no"?>
<svg
   xmlns:dc="http://purl.org/dc/elements/1.1/"
   xmlns:cc="http://creativecommons.org/ns#"
   xmlns:rdf="http://www.w3.org/1999/02/22-rdf-syntax-ns#"
   xmlns:svg="http://www.w3.org/2000/svg"
   xmlns="http://www.w3.org/2000/svg"
   xmlns:sodipodi="http://sodipodi.sourceforge.net/DTD/sodipodi-0.dtd"
   xmlns:inkscape="http://www.inkscape.org/namespaces/inkscape"
   width="100"
   height="75"
   viewBox="0 0 26.458332 19.84375"
   version="1.1"
   id="svg8"
   inkscape:version="1.0.2 (e86c870879, 2021-01-15, custom)"
   sodipodi:docname="CSSicon.svg">
  <defs
     id="defs2">
    <marker
       style="overflow:visible"
       id="Arrow1Lend"
       refX="0"
       refY="0"
       orient="auto"
       inkscape:stockid="Arrow1Lend"
       inkscape:isstock="true">
      <path
         transform="matrix(-0.8,0,0,-0.8,-10,0)"
         style="fill-rule:evenodd;stroke:#000000;stroke-width:1pt"
         d="M 0,0 5,-5 -12.5,0 5,5 Z"
         id="path838" />
    </marker>
    <marker
       style="overflow:visible"
       id="Tail"
       refX="0"
       refY="0"
       orient="auto"
       inkscape:stockid="Tail"
       inkscape:isstock="true">
      <g
         transform="scale(-1.2)"
         id="g883">
        <path
           style="fill:none;fill-rule:evenodd;stroke:#000000;stroke-width:0.8;stroke-linecap:round"
           d="M -3.8048674,-3.9585227 0.54352094,0"
           id="path871" />
        <path
           style="fill:none;fill-rule:evenodd;stroke:#000000;stroke-width:0.8;stroke-linecap:round"
           d="M -1.2866832,-3.9585227 3.0617053,0"
           id="path873" />
        <path
           style="fill:none;fill-rule:evenodd;stroke:#000000;stroke-width:0.8;stroke-linecap:round"
           d="M 1.3053582,-3.9585227 5.6537466,0"
           id="path875" />
        <path
           style="fill:none;fill-rule:evenodd;stroke:#000000;stroke-width:0.8;stroke-linecap:round"
           d="M -3.8048674,4.1775838 0.54352094,0.21974226"
           id="path877" />
        <path
           style="fill:none;fill-rule:evenodd;stroke:#000000;stroke-width:0.8;stroke-linecap:round"
           d="M -1.2866832,4.1775838 3.0617053,0.21974226"
           id="path879" />
        <path
           style="fill:none;fill-rule:evenodd;stroke:#000000;stroke-width:0.8;stroke-linecap:round"
           d="M 1.3053582,4.1775838 5.6537466,0.21974226"
           id="path881" />
      </g>
    </marker>
    <marker
       style="overflow:visible"
       id="Arrow1Lstart"
       refX="0"
       refY="0"
       orient="auto"
       inkscape:stockid="Arrow1Lstart"
       inkscape:isstock="true">
      <path
         transform="matrix(0.8,0,0,0.8,10,0)"
         style="fill-rule:evenodd;stroke:#000000;stroke-width:1pt"
         d="M 0,0 5,-5 -12.5,0 5,5 Z"
         id="path835" />
    </marker>
  </defs>
  <sodipodi:namedview
     id="base"
     pagecolor="#ffffff"
     bordercolor="#666666"
     borderopacity="1.0"
     inkscape:pageopacity="0.0"
     inkscape:pageshadow="2"
     inkscape:zoom="5.6568543"
     inkscape:cx="17.964579"
     inkscape:cy="35.493047"
     inkscape:document-units="mm"
     inkscape:current-layer="layer1"
     inkscape:document-rotation="0"
     showgrid="false"
     units="px"
     inkscape:window-width="1840"
     inkscape:window-height="980"
     inkscape:window-x="1451"
     inkscape:window-y="48"
     inkscape:window-maximized="0"
     inkscape:snap-object-midpoints="false"
     inkscape:snap-center="false"
     inkscape:snap-midpoints="false"
     inkscape:snap-smooth-nodes="false"
     inkscape:snap-others="false" />
  <metadata
     id="metadata5">
    <rdf:RDF>
      <cc:Work
         rdf:about="">
        <dc:format>image/svg+xml</dc:format>
        <dc:type
           rdf:resource="http://purl.org/dc/dcmitype/StillImage" />
        <dc:title></dc:title>
      </cc:Work>
    </rdf:RDF>
  </metadata>
  <g
     inkscape:label="Layer 1"
     inkscape:groupmode="layer"
     id="layer1">
    <path
       id="rect1160"
       style="opacity:0.999;fill:#ffffff;fill-opacity:0;fill-rule:evenodd;stroke:#007ce4;stroke-width:0.968738;stroke-linecap:butt;stroke-linejoin:miter;stroke-miterlimit:4;stroke-dasharray:none;stroke-opacity:1;paint-order:markers stroke fill"
       d="M 7.4387329,0.5476 H 17.53912 l 0.01006,2.1653342 2.149902,-0.012097 -0.0028,16.7217748 H 7.4387329 Z"
       sodipodi:nodetypes="ccccccc" />
    <path
       style="fill:none;stroke:#000000;stroke-width:0.264583px;stroke-linecap:butt;stroke-linejoin:miter;stroke-opacity:1"
       d="m 17.766095,0.1649482 c 0,0 0,0 0,0 z"
       id="path1076" />
    <path
       style="fill:none;stroke:#0d0019;stroke-width:1.04569;stroke-linecap:butt;stroke-linejoin:miter;stroke-miterlimit:4;stroke-dasharray:none;stroke-opacity:1"
       d="M 8.1833804,2.1482915 H 12.456852"
       id="path1188-7-0" />
    <path
       style="fill:none;stroke:#008bff;stroke-width:1.04598;stroke-linecap:butt;stroke-linejoin:miter;stroke-miterlimit:4;stroke-dasharray:none;stroke-opacity:1"
       d="M 8.8179815,3.6261826 H 10.277981"
       id="path1194-3-6-5-2-2" />
    <path
       style="fill:none;stroke:#008bff;stroke-width:1.04598;stroke-linecap:butt;stroke-linejoin:miter;stroke-miterlimit:4;stroke-dasharray:none;stroke-opacity:1"
       d="M 8.8179815,5.4074693 H 10.716102"
       id="path1194-3-6-5-2-2-3" />
    <path
       style="fill:none;stroke:#008bff;stroke-width:1.04598;stroke-linecap:butt;stroke-linejoin:miter;stroke-miterlimit:4;stroke-dasharray:none;stroke-opacity:1"
       d="M 8.8179819,7.1141831 H 12.499523"
       id="path1194-3-6-5-2-2-3-7" />
    <path
       style="fill:none;stroke:#008bff;stroke-width:1.04598;stroke-linecap:butt;stroke-linejoin:miter;stroke-miterlimit:4;stroke-dasharray:none;stroke-opacity:1"
       d="M 8.8179819,9.0002907 H 11.69259"
       id="path1194-3-6-5-2-2-3-7-5" />
    <path
       style="fill:#2c2c8b;fill-opacity:1;stroke:#008bff;stroke-width:1.04598;stroke-linecap:butt;stroke-linejoin:miter;stroke-miterlimit:4;stroke-dasharray:none;stroke-opacity:1"
       d="M 8.8179819,10.887147 H 11.194961"
       id="path1194-3-6-5-2-2-3-7-5-9" />
    <path
       style="fill:none;stroke:#008bff;stroke-width:1.04598;stroke-linecap:butt;stroke-linejoin:miter;stroke-miterlimit:4;stroke-dasharray:none;stroke-opacity:1"
       d="M 8.8179819,12.692818 H 12.696465"
       id="path1194-3-6-5-2-2-3-7-5-9-2" />
    <path
       style="fill:#e251b3;fill-opacity:1;stroke:#e77171;stroke-width:1.04598;stroke-linecap:butt;stroke-linejoin:miter;stroke-miterlimit:4;stroke-dasharray:none;stroke-opacity:1"
       d="m 12.906434,7.1141831 h 4.201853"
       id="path1194-1-3-9" />
    <path
       style="fill:#20bf3a;fill-opacity:1;stroke:#00ff19;stroke-width:1.04598;stroke-linecap:butt;stroke-linejoin:miter;stroke-miterlimit:4;stroke-dasharray:none;stroke-opacity:1"
       d="m 13.158724,12.692818 h 1.149574"
       id="path1194-1-2-7-0-0-6-9-7" />
    <path
       style="fill:#00e82d;fill-opacity:1;stroke:#00ff19;stroke-width:1.04598;stroke-linecap:butt;stroke-linejoin:miter;stroke-miterlimit:4;stroke-dasharray:none;stroke-opacity:1"
       d="m 12.085562,9.0002907 h 1.149575"
       id="path1194-1-2-7-0-0-6-9-7-3" />
    <path
       style="fill:#20bf3a;fill-opacity:1;stroke:#e77171;stroke-width:1.04598;stroke-linecap:butt;stroke-linejoin:miter;stroke-miterlimit:4;stroke-dasharray:none;stroke-opacity:1"
       d="m 13.598636,9.0002907 h 1.867035"
       id="path1194-1-2-7-6-1-1" />
    <path
       style="fill:#e251b3;fill-opacity:1;stroke:#e77171;stroke-width:1.04598;stroke-linecap:butt;stroke-linejoin:miter;stroke-miterlimit:4;stroke-dasharray:none;stroke-opacity:1"
       d="m 11.706621,10.887147 h 6.612741"
       id="path1194-1-2-7-6-1-1-2" />
    <path
       style="fill:#e251b3;fill-opacity:1;stroke:#e77171;stroke-width:1.04598;stroke-linecap:butt;stroke-linejoin:miter;stroke-miterlimit:4;stroke-dasharray:none;stroke-opacity:1"
       d="m 14.67712,12.692818 h 4.21345"
       id="path1194-1-2-7-6-1-1-7" />
    <path
       style="fill:#e251b3;fill-opacity:1;stroke:#e77171;stroke-width:1.04598;stroke-linecap:butt;stroke-linejoin:miter;stroke-miterlimit:4;stroke-dasharray:none;stroke-opacity:1"
       d="m 11.061202,5.4074693 h 2.953139"
       id="path1194-1-3-9-8" />
    <path
       style="fill:#20bf3a;fill-opacity:1;stroke:#00ff19;stroke-width:1.04598;stroke-linecap:butt;stroke-linejoin:miter;stroke-miterlimit:4;stroke-dasharray:none;stroke-opacity:1"
       d="M 10.659207,3.6261826 H 12.41049"
       id="path1194-1-2-7-0-6-4" />
    <path
       style="fill:#e251b3;fill-opacity:1;stroke:#e77171;stroke-width:1.04598;stroke-linecap:butt;stroke-linejoin:miter;stroke-miterlimit:4;stroke-dasharray:none;stroke-opacity:1"
       d="m 12.949518,3.6261826 h 2.953139"
       id="path1194-1-3-9-8-5" />
    <path
       style="fill:#20bf3a;fill-opacity:1;stroke:#00ff19;stroke-width:1.04598;stroke-linecap:butt;stroke-linejoin:miter;stroke-miterlimit:4;stroke-dasharray:none;stroke-opacity:1"
       d="m 14.4163,5.4074693 h 1.149574"
       id="path1194-1-2-7-0-0-6-9-7-3-0" />
    <path
       style="fill:#e251b3;fill-opacity:1;stroke:#e77171;stroke-width:1.04598;stroke-linecap:butt;stroke-linejoin:miter;stroke-miterlimit:4;stroke-dasharray:none;stroke-opacity:1"
       d="m 15.969297,5.4074693 h 2.953139"
       id="path1194-1-3-9-8-5-3" />
    <path
       style="opacity:0.999;fill:none;fill-opacity:1;fill-rule:evenodd;stroke:none;stroke-width:0.00835218;stroke-linecap:butt;stroke-linejoin:miter;stroke-miterlimit:4;stroke-dasharray:none;stroke-opacity:1;paint-order:markers stroke fill"
       d="m 17.885514,0.68976129 c 0.0012,0.54176211 0.01213,1.08343241 0.02212,1.62508481 0.685857,-3.704e-4 1.371713,-7.408e-4 2.057571,-0.00111 -0.694446,-0.67906 -1.386696,-1.36036069 -2.079692,-2.04089898 0,0.13897449 0,0.277949 0,0.41692352 z"
       id="path1163" />
    <path
       style="opacity:0.999;fill:#006bc3;fill-opacity:1;fill-rule:evenodd;stroke:#0067be;stroke-width:0.017901;stroke-linecap:butt;stroke-linejoin:miter;stroke-miterlimit:4;stroke-dasharray:none;stroke-opacity:1;paint-order:markers stroke fill"
       d="m 18.027178,0.08541413 c -8.09e-4,0.71233122 0.0068,1.42465807 0.01043,2.13698137 0.709327,-9.334e-4 1.418668,-0.00338 2.127928,-0.014349 -0.71269,-0.708091 -1.420941,-1.42094905 -2.138219,-2.12420223 z"
       id="path1191" />
    <path
       id="rect928"
       style="opacity:0.999;fill:#006ec9;fill-opacity:1;fill-rule:evenodd;stroke:#7ca0ff;stroke-width:0.377953;stroke-linecap:round;stroke-linejoin:round;stroke-miterlimit:4;stroke-dasharray:none;stroke-opacity:1;paint-order:markers stroke fill"
       d="M 18.746094 53.265625 L 31.304688 69.761719 L 85.333984 69.761719 L 70.53125 53.265625 L 18.746094 53.265625 z M 38.550781 54.373047 C 40.550531 54.373047 42.021458 55.251597 42.960938 57.009766 C 43.269624 57.573453 43.496899 58.204445 43.644531 58.902344 L 41.972656 59.205078 C 41.42239 57.191908 40.436312 56.09024 39.013672 55.902344 C 38.839197 55.875501 38.664709 55.861328 38.490234 55.861328 C 36.772329 55.861328 35.605654 56.849359 34.988281 58.822266 C 34.719859 59.681218 34.585937 60.626729 34.585938 61.660156 C 34.585938 63.47201 34.973527 64.928764 35.751953 66.029297 C 36.42301 66.982198 37.309623 67.458984 38.410156 67.458984 C 40.195167 67.458984 41.382126 66.37149 41.972656 64.197266 C 41.999499 64.116739 42.019782 64.035605 42.033203 63.955078 L 43.644531 64.318359 C 43.013738 66.908639 41.652291 68.410117 39.558594 68.826172 C 39.182802 68.893278 38.799369 68.927734 38.410156 68.927734 C 36.303038 68.927734 34.726536 67.953877 33.679688 66.007812 C 32.99521 64.719383 32.652344 63.224016 32.652344 61.519531 C 32.652344 59.251359 33.242768 57.451739 34.423828 56.123047 C 35.470677 54.955408 36.846297 54.373047 38.550781 54.373047 z M 50.912109 54.373047 C 52.858174 54.373047 54.321038 55.077109 55.300781 56.486328 L 55.703125 57.230469 C 55.797073 57.418365 55.878207 57.621199 55.945312 57.835938 L 54.333984 58.277344 C 54.15951 57.351285 53.569085 56.647223 52.5625 56.164062 C 52.025655 55.909061 51.461624 55.78125 50.871094 55.78125 C 49.891351 55.78125 49.093935 56.063265 48.476562 56.626953 C 48.060507 57.016166 47.851562 57.486843 47.851562 58.037109 C 47.851562 58.963168 48.429767 59.640836 49.583984 60.070312 C 49.865828 60.16426 50.758551 60.385425 52.261719 60.734375 C 53.603832 61.043061 54.549343 61.424541 55.099609 61.880859 C 55.985404 62.59218 56.427734 63.52547 56.427734 64.679688 C 56.427734 66.424435 55.616145 67.660024 53.992188 68.384766 C 53.160077 68.747136 52.214567 68.927734 51.154297 68.927734 C 48.255331 68.927734 46.342074 67.592681 45.416016 64.921875 L 47.005859 64.558594 C 47.435336 66.021498 48.403083 66.928394 49.90625 67.277344 C 50.308884 67.371292 50.737041 67.417969 51.193359 67.417969 C 52.562315 67.417969 53.542282 67.048709 54.132812 66.310547 C 54.441499 65.934755 54.595703 65.472142 54.595703 64.921875 C 54.595703 63.955553 53.984995 63.237318 52.763672 62.767578 L 51.455078 62.404297 C 49.871384 62.001663 49.007008 61.774388 48.859375 61.720703 C 48.161476 61.492544 47.629949 61.216639 47.267578 60.894531 C 46.502573 60.210053 46.121094 59.337614 46.121094 58.277344 C 46.121094 56.666807 46.865723 55.532636 48.355469 54.875 C 49.120474 54.539472 49.97263 54.373047 50.912109 54.373047 z M 63.675781 54.373047 C 65.621846 54.373047 67.08471 55.077109 68.064453 56.486328 L 68.466797 57.230469 C 68.560745 57.418365 68.641879 57.621199 68.708984 57.835938 L 67.097656 58.277344 C 66.923181 57.351285 66.332757 56.647223 65.326172 56.164062 C 64.789326 55.909061 64.225296 55.78125 63.634766 55.78125 C 62.655023 55.78125 61.857607 56.063265 61.240234 56.626953 C 60.824179 57.016166 60.615234 57.486843 60.615234 58.037109 C 60.615234 58.963168 61.193438 59.640836 62.347656 60.070312 C 62.6295 60.16426 63.52027 60.385425 65.023438 60.734375 C 66.365551 61.043061 67.313015 61.424541 67.863281 61.880859 C 68.749076 62.59218 69.191406 63.52547 69.191406 64.679688 C 69.191406 66.424435 68.379817 67.660024 66.755859 68.384766 C 65.923749 68.747136 64.978239 68.927734 63.917969 68.927734 C 61.019003 68.927734 59.105746 67.592681 58.179688 64.921875 L 59.769531 64.558594 C 60.199008 66.021498 61.166755 66.928394 62.669922 67.277344 C 63.072556 67.371292 63.500713 67.417969 63.957031 67.417969 C 65.325987 67.417969 66.305954 67.048709 66.896484 66.310547 C 67.205171 65.934755 67.359375 65.472142 67.359375 64.921875 C 67.359375 63.955553 66.748667 63.237318 65.527344 62.767578 L 64.21875 62.404297 C 62.635056 62.001663 61.770679 61.774388 61.623047 61.720703 C 60.925148 61.492544 60.393621 61.216639 60.03125 60.894531 C 59.266245 60.210053 58.884766 59.337614 58.884766 58.277344 C 58.884766 56.666807 59.629394 55.532636 61.119141 54.875 C 61.884145 54.539472 62.736302 54.373047 63.675781 54.373047 z "
       transform="scale(0.26458333)" />
    <text
       xml:space="preserve"
       style="font-style:normal;font-weight:normal;font-size:10.5833px;line-height:1.25;font-family:'WenQuanYi Zen Hei';fill:#000000;fill-opacity:1;stroke:none;stroke-width:0.264583;-inkscape-font-specification:'WenQuanYi Zen Hei';font-stretch:normal;font-variant:normal;"
       x="25.543102"
       y="22.10581"
       id="text937"><tspan
         sodipodi:role="line"
         id="tspan935"
         x="25.543102"
         y="22.10581"
         style="stroke-width:0.264583;-inkscape-font-specification:'WenQuanYi Zen Hei';font-family:'WenQuanYi Zen Hei';font-weight:normal;font-style:normal;font-stretch:normal;font-variant:normal;" /></text>
  </g>
</svg>
