<?xml version="1.0" encoding="UTF-8" standalone="no"?>
<!-- Created with Inkscape (http://www.inkscape.org/) -->

<svg
   width="50"
   height="50"
   viewBox="0 0 13.229166 13.229167"
   version="1.1"
   id="svg5"
   inkscape:version="1.1 (c4e8f9ed74, 2021-05-24)"
   sodipodi:docname="RetryButton.svg"
   xmlns:inkscape="http://www.inkscape.org/namespaces/inkscape"
   xmlns:sodipodi="http://sodipodi.sourceforge.net/DTD/sodipodi-0.dtd"
   xmlns="http://www.w3.org/2000/svg"
   xmlns:svg="http://www.w3.org/2000/svg">
  <sodipodi:namedview
     id="namedview7"
     pagecolor="#505050"
     bordercolor="#eeeeee"
     borderopacity="1"
     inkscape:pageshadow="0"
     inkscape:pageopacity="0"
     inkscape:pagecheckerboard="0"
     inkscape:document-units="mm"
     showgrid="false"
     inkscape:snap-grids="true"
     inkscape:snap-page="false"
     inkscape:snap-to-guides="true"
     units="px"
     width="50px"
     inkscape:zoom="14.4"
     inkscape:cx="10.3125"
     inkscape:cy="27.083332"
     inkscape:window-width="1672"
     inkscape:window-height="1058"
     inkscape:window-x="1453"
     inkscape:window-y="22"
     inkscape:window-maximized="0"
     inkscape:current-layer="layer1" />
  <defs
     id="defs2">
    <inkscape:path-effect
       effect="bspline"
       id="path-effect1757"
       is_visible="true"
       lpeversion="1"
       weight="33.333333"
       steps="2"
       helper_size="0"
       apply_no_weight="true"
       apply_with_weight="true"
       only_selected="false" />
    <inkscape:path-effect
       effect="bspline"
       id="path-effect1700"
       is_visible="true"
       lpeversion="1"
       weight="33.333333"
       steps="2"
       helper_size="0"
       apply_no_weight="true"
       apply_with_weight="true"
       only_selected="false" />
    <inkscape:path-effect
       effect="bspline"
       id="path-effect1506"
       is_visible="true"
       lpeversion="1"
       weight="33.333333"
       steps="2"
       helper_size="0"
       apply_no_weight="true"
       apply_with_weight="true"
       only_selected="false" />
    <inkscape:path-effect
       effect="bspline"
       id="path-effect1502"
       is_visible="true"
       lpeversion="1"
       weight="33.333333"
       steps="2"
       helper_size="0"
       apply_no_weight="true"
       apply_with_weight="true"
       only_selected="false" />
    <inkscape:path-effect
       effect="bspline"
       id="path-effect3217"
       is_visible="true"
       lpeversion="1"
       weight="33.333333"
       steps="2"
       helper_size="0"
       apply_no_weight="true"
       apply_with_weight="true"
       only_selected="false" />
    <inkscape:path-effect
       effect="bspline"
       id="path-effect4540"
       is_visible="true"
       lpeversion="1"
       weight="33.333333"
       steps="2"
       helper_size="0"
       apply_no_weight="true"
       apply_with_weight="true"
       only_selected="false" />
    <inkscape:path-effect
       effect="bspline"
       id="path-effect3677"
       is_visible="true"
       lpeversion="1"
       weight="33.333333"
       steps="2"
       helper_size="0"
       apply_no_weight="true"
       apply_with_weight="true"
       only_selected="false" />
    <inkscape:path-effect
       effect="bspline"
       id="path-effect3251"
       is_visible="true"
       lpeversion="1"
       weight="33.333333"
       steps="2"
       helper_size="0"
       apply_no_weight="true"
       apply_with_weight="true"
       only_selected="false" />
    <inkscape:path-effect
       effect="bspline"
       id="path-effect2011"
       is_visible="true"
       lpeversion="1"
       weight="33.333333"
       steps="2"
       helper_size="0"
       apply_no_weight="true"
       apply_with_weight="true"
       only_selected="false" />
    <inkscape:path-effect
       effect="bspline"
       id="path-effect518"
       is_visible="true"
       lpeversion="1"
       weight="33.333333"
       steps="2"
       helper_size="0"
       apply_no_weight="true"
       apply_with_weight="true"
       only_selected="false" />
  </defs>
  <g
     inkscape:label="Layer 1"
     inkscape:groupmode="layer"
     id="layer1">
    <path
       style="fill:#ffffff;stroke:#000000;stroke-width:0.0264583;stroke-linecap:butt;stroke-linejoin:miter;stroke-miterlimit:4;stroke-dasharray:none;stroke-opacity:1;fill-opacity:1"
       d="M 2.8767044,0.70571203 C 2.8457211,0.9210546 2.7634161,1.3507198 2.7217208,1.5747624 2.6800256,1.798805 2.6789156,1.8171832 2.7265513,1.794491 2.774187,1.7717989 2.8704864,1.7083291 2.9858555,1.6419262 3.1012246,1.5755234 3.2356179,1.5062023 3.4338462,1.4251072 3.6320745,1.3440121 3.8940738,1.2511498 4.1298484,1.1804312 4.3656231,1.1097125 4.575118,1.0611323 4.7882374,1.0236853 5.0013568,0.9862382 5.2180515,0.9599094 5.4306623,0.94673013 c 0.2126108,-0.0131793 0.4210895,-0.0132362 0.6397849,-9.6205e-4 0.2186953,0.0122742 0.4475689,0.0368474 0.6737856,0.0710138 0.2262167,0.034166 0.4497483,0.077895 0.6724131,0.1392988 0.2226648,0.061403 0.4444351,0.1404234 0.6419909,0.2190961 0.1975559,0.078673 0.3708847,0.1569624 0.5554687,0.2571203 0.1845839,0.1001578 0.3804201,0.2221281 0.545342,0.3303459 0.1649218,0.1082179 0.2989277,0.2026574 0.4512009,0.3312101 0.1522731,0.1285527 0.3228347,0.2911642 0.4813106,0.4519082 0.158477,0.1607441 0.304874,0.3195927 0.448103,0.5032521 0.143229,0.1836594 0.283328,0.3920873 0.409957,0.6048003 0.126629,0.2127129 0.239819,0.4296867 0.347821,0.6753566 0.108003,0.2456699 0.210857,0.520019 0.286012,0.7813924 0.07516,0.2613734 0.122668,0.5097705 0.157911,0.7698214 0.03524,0.2600509 0.05824,0.5317574 0.06544,0.7549962 0.0072,0.2232389 -0.0014,0.3980324 -0.01965,0.603049 -0.01828,0.2050166 -0.04625,0.4402664 -0.09133,0.6713506 -0.04508,0.2310843 -0.107246,0.458042 -0.179244,0.6760039 -0.072,0.217962 -0.153818,0.4269544 -0.250359,0.6415829 -0.09654,0.2146284 -0.207798,0.4349155 -0.340951,0.6507973 -0.133154,0.215882 -0.288214,0.427403 -0.416861,0.591668 -0.128646,0.164264 -0.230888,0.281289 -0.375528,0.42874 -0.1446391,0.14745 -0.331689,0.325341 -0.5352306,0.490987 -0.2035415,0.165646 -0.4236097,0.319068 -0.6189613,0.443217 -0.1953515,0.124148 -0.3660107,0.219028 -0.5396066,0.301334 -0.1735959,0.08231 -0.3501661,0.152038 -0.5273512,0.217227 -0.1771851,0.06519 -0.3549903,0.12583 -0.5487519,0.178257 -0.1937615,0.05243 -0.40351,0.09663 -0.5945977,0.129473 -0.1910878,0.03285 -0.3635338,0.05432 -0.5230187,0.06987 -0.1594849,0.01555 -0.3060153,0.02517 -0.5189334,0.01776 -0.2129182,-0.0074 -0.4922442,-0.03188 -0.7601952,-0.07259 C 4.6986895,12.833406 4.4421054,12.776432 4.2074109,12.71424 3.9727165,12.652048 3.7599181,12.58461 3.4886612,12.465788 3.2174044,12.346967 2.8877066,12.176706 2.5753202,11.975393 2.2629338,11.77408 1.9679019,11.541661 1.7687291,11.366454 1.5695563,11.191246 1.4662978,11.073208 1.4065328,10.986602 c -0.059765,-0.08661 -0.075881,-0.141809 -0.083745,-0.225529 -0.00786,-0.08372 -0.00738,-0.195898 0.06652,-0.284401 0.073905,-0.0885 0.2211055,-0.153009 0.3332727,-0.185687 0.1121673,-0.03268 0.1891608,-0.03358 0.2816531,0.02467 0.092492,0.05825 0.2004862,0.175353 0.3350749,0.303839 0.1345887,0.128486 0.2957339,0.268371 0.4916611,0.410055 0.1959271,0.141684 0.4265965,0.285211 0.6221303,0.392903 0.1955339,0.107692 0.3559108,0.179593 0.5527112,0.250747 0.1968004,0.07115 0.4300126,0.141602 0.6690357,0.1956 0.239023,0.054 0.4838587,0.09159 0.7059788,0.114222 0.22212,0.02263 0.4215319,0.03033 0.6111555,0.02585 0.1896236,-0.0045 0.3694823,-0.02112 0.606307,-0.06433 0.2368247,-0.04321 0.5306491,-0.112966 0.7580918,-0.181233 0.2274427,-0.06827 0.3885528,-0.135031 0.5956402,-0.237632 0.2070874,-0.102601 0.4601801,-0.241036 0.6974346,-0.39807 0.2372545,-0.157034 0.4587161,-0.332682 0.6405937,-0.502667 0.1818776,-0.169985 0.3242134,-0.334345 0.4566301,-0.50162 0.1324167,-0.1672757 0.2549234,-0.337484 0.3726144,-0.5281973 0.117692,-0.1907132 0.230576,-0.4019666 0.337244,-0.6584034 0.106668,-0.2564367 0.207115,-0.5581038 0.273877,-0.8229929 0.06676,-0.2648891 0.09981,-0.4930469 0.116008,-0.7614781 0.01619,-0.2684311 0.01549,-0.5771616 0.0062,-0.8063777 -0.0093,-0.2292162 -0.02711,-0.3789078 -0.0827,-0.6238432 C 10.714373,5.677084 10.62101,5.336897 10.506463,5.0406239 10.391917,4.7443507 10.256111,4.4920058 10.109399,4.2601659 9.9626873,4.028326 9.8050262,3.8170227 9.6144178,3.6046627 9.4238094,3.3923028 9.2002159,3.1789368 9.0047069,3.0133871 8.809198,2.8478374 8.6417533,2.7301586 8.4147404,2.5998589 8.1877275,2.4695591 7.9011451,2.3267 7.6590386,2.2237165 7.4169322,2.1207329 7.2193157,2.0576875 6.9643913,2.0046324 6.709467,1.9515774 6.3972723,1.9085761 6.1574512,1.884706 5.91763,1.8608358 5.7502188,1.8561309 5.565801,1.8629314 5.3813832,1.8697319 5.1800033,1.8880666 4.9386145,1.9366784 4.6972256,1.9852903 4.415905,2.0642037 4.2010266,2.132209 3.9861482,2.2002143 3.8377581,2.2573128 3.6546225,2.3447332 3.4714869,2.4321536 3.2536647,2.5498866 3.1381255,2.6135657 3.0225863,2.6772447 3.0093834,2.6868493 3.2415946,2.7579969 3.4738058,2.8291445 3.9511472,2.9617067 4.192838,3.0390951 4.4345288,3.1164835 4.4406938,3.1381525 4.4469485,3.1601365 4.3851617,3.3751985 4.3233248,3.5904348 4.2792986,3.7050765 4.2352724,3.8197182 4.2088625,3.8341653 3.8742109,3.7491411 3.5395593,3.6641169 2.8964689,3.4794884 2.5623465,3.3846349 2.2282241,3.2897815 2.2030903,3.2847356 2.1627705,3.2837402 2.1224506,3.2827448 2.0670021,3.2858747 2.0121128,3.2781639 1.9572235,3.270453 1.9028276,3.2517786 1.8554404,3.2125958 1.8080532,3.173413 1.7677896,3.113528 1.7362176,3.0609814 1.7046456,3.0084348 1.6818115,2.9632173 1.6737894,2.8949611 1.6657673,2.826705 1.6727361,2.7354892 1.6873365,2.6618836 1.7019369,2.588278 1.7242043,2.5323908 1.8044887,2.1450662 1.8847732,1.7577416 2.0230533,1.0389423 2.1018448,0.67998392 2.1806362,0.32102556 2.1996162,0.32211251 2.317091,0.35027605 c 0.1174748,0.0281635 0.3334015,0.0833377 0.4516737,0.11130329 0.1182722,0.0279656 0.1389231,0.0287901 0.1079397,0.24413269 z"
       id="path1755"
       inkscape:path-effect="#path-effect1757"
       inkscape:original-d="m 2.9280656,0.49118312 c -0.08204,0.42992981 -0.1643454,0.85959498 -0.246915,1.28899568 -8.466e-4,0.018643 -0.00196,0.037021 -0.00333,0.055134 0.096568,-0.063208 0.1928675,-0.1266777 0.2889043,-0.1904134 0.1346632,-0.069059 0.2690564,-0.1383803 0.4031877,-0.2079673 0.2622746,-0.092602 0.524274,-0.1854639 0.7860141,-0.2785927 0.209768,-0.048318 0.419263,-0.096898 0.6284976,-0.1457435 0.2169681,-0.026065 0.4336627,-0.052394 0.6500971,-0.078988 0.2087518,2.076e-4 0.4172305,1.506e-4 0.6254488,-1.709e-4 0.2291472,0.024839 0.4580208,0.049412 0.686634,0.073721 0.2238052,0.043995 0.4473368,0.087724 0.6706084,0.1311894 0.2220442,0.079288 0.4438145,0.1583079 0.6653249,0.2370649 0.1736006,0.078558 0.3469296,0.1568474 0.5199976,0.2348743 0.1961094,0.1222404 0.3919455,0.2442109 0.5875225,0.3659193 0.134275,0.094707 0.268281,0.1891465 0.402024,0.2833229 0.170834,0.1628832 0.341395,0.3254953 0.5116964,0.4878459 0.146669,0.1591201 0.293066,0.3179694 0.439203,0.4765569 0.14037,0.2087009 0.280469,0.4171291 0.420307,0.6252967 0.113459,0.2172464 0.22665,0.4342198 0.339577,0.6509332 0.103123,0.2746242 0.205977,0.5489733 0.308568,0.8230631 0.04778,0.2486721 0.09529,0.4970698 0.142544,0.7452077 0.02327,0.2719822 0.04627,0.5436889 0.06901,0.8151363 -0.0083,0.1750644 -0.01688,0.3498575 -0.02571,0.5243893 -0.0277,0.2355234 -0.05567,0.4707731 -0.08391,0.7057626 -0.0619,0.2272305 -0.124069,0.4541874 -0.186501,0.6808843 -0.08156,0.2092655 -0.163379,0.4182583 -0.245465,0.6269905 -0.110997,0.2205601 -0.222254,0.4408474 -0.333779,0.6608747 -0.154802,0.211794 -0.309862,0.423316 -0.46519,0.634577 -0.101982,0.117295 -0.204224,0.23432 -0.306733,0.351083 -0.1867934,0.178163 -0.3738434,0.356054 -0.5611614,0.533684 -0.219812,0.153693 -0.43988,0.307116 -0.6602165,0.460276 -0.170402,0.09515 -0.3410617,0.190029 -0.5119894,0.284646 -0.1763128,0.07 -0.3528833,0.139731 -0.529722,0.2092 -0.1775484,0.06091 -0.3553542,0.121549 -0.5334283,0.181926 -0.2094921,0.04447 -0.4192405,0.08867 -0.6292575,0.132602 -0.1721877,0.02174 -0.3446333,0.04322 -0.5173467,0.06443 -0.1462735,0.0099 -0.2928056,0.01949 -0.4396054,0.02885 C 5.5138962,12.939534 5.2345705,12.915054 4.954975,12.890314 4.6986456,12.833604 4.4420617,12.776629 4.1852084,12.719389 3.9726655,12.652209 3.7598661,12.584774 3.5467982,12.51707 3.217352,12.347068 2.8876545,12.176807 2.5576857,12.006279 2.2629066,11.774115 1.9678747,11.541696 1.6725725,11.309008 1.5695748,11.19123 1.4663167,11.073191 1.362792,10.954886 1.34694,10.899946 1.330825,10.844742 1.314444,10.789273 c 7.461e-4,-0.111919 0.00123,-0.224097 0.00144,-0.336543 0.1474699,-0.06424 0.2946693,-0.128748 0.441607,-0.193519 0.07726,-6.35e-4 0.1542528,-0.0016 0.2309823,-0.0027 0.1082635,0.117378 0.2162579,0.234485 0.3239899,0.351331 0.1614165,0.140156 0.3225618,0.280041 0.4834459,0.419664 0.2309429,0.143797 0.4616122,0.287324 0.6920214,0.430589 0.1606484,0.07217 0.3210258,0.14407 0.4811421,0.215708 0.2334869,0.07072 0.4666999,0.141166 0.6996531,0.211351 0.2451105,0.03786 0.4899467,0.07545 0.734523,0.112782 0.199686,0.008 0.3990991,0.01567 0.5982517,0.02311 0.1801305,-0.01638 0.3599892,-0.03302 0.5395868,-0.04992 0.2941,-0.06949 0.5879237,-0.139248 0.8814887,-0.209269 0.1613802,-0.0665 0.3224893,-0.133268 0.4833371,-0.200299 0.2533671,-0.138175 0.5064596,-0.27661 0.7592928,-0.415312 0.2217343,-0.17539 0.4431958,-0.351038 0.6643968,-0.526953 0.142605,-0.164102 0.284941,-0.328462 0.427015,-0.493089 0.122777,-0.1699523 0.2452844,-0.3401603 0.3675294,-0.5106369 0.113153,-0.210997 0.226038,-0.4222502 0.33866,-0.6337724 0.100715,-0.3014146 0.201162,-0.6030817 0.301347,-0.9050194 0.03332,-0.2279028 0.06637,-0.456061 0.09916,-0.6844882 -4.5e-4,-0.3084785 -0.0011,-0.6172091 -0.0021,-0.9262105 -0.0176,-0.1494565 -0.03545,-0.2991484 -0.05356,-0.4491079 C 10.714558,5.6770333 10.621191,5.3368472 10.527558,4.9963895 10.392012,4.7442996 10.256206,4.4919548 10.120133,4.2393407 9.9627306,4.0282937 9.8050696,3.8169903 9.6471406,3.6054184 9.4238036,3.3923089 9.2002096,3.1789434 8.9763479,2.965309 8.8091609,2.8478901 8.6417162,2.7302114 8.4740037,2.6122656 8.1876745,2.4696654 7.9010921,2.3268063 7.6142396,2.1836798 7.41688,2.1208964 7.2192635,2.057851 7.0213785,1.9945397 6.7094361,1.9518017 6.3972415,1.9087997 6.084776,1.8655333 5.9176228,1.8610933 5.7502117,1.8563833 5.5825325,1.8514183 5.3814093,1.8700183 5.1800293,1.8883523 4.9783808,1.9064233 4.6973137,1.9856043 4.4159931,2.0645179 4.1344021,2.1431682 3.9862709,2.2005332 3.8378809,2.2576319 3.6892234,2.3144669 3.4716574,2.4324691 3.2538352,2.5502021 3.0357442,2.6676728 c -0.012941,0.00987 -0.026143,0.019476 -0.039613,0.028817 0.4776253,0.1328322 0.9549667,0.2653943 1.4320533,0.3976947 0.00652,0.022249 0.018764,0.065952 0.018764,0.065952 0,0 -0.1233091,0.4303887 -0.1853605,0.6451861 -0.026143,0.014711 -0.052553,0.029158 -0.079227,0.04334 C 3.5395092,3.6642916 2.8964188,3.4796629 2.2530511,3.2947658 c -0.024868,-0.00478 -0.050001,-0.00983 -0.075398,-0.015137 -0.055187,0.00339 -0.1106355,0.00652 -0.1663501,0.00939 -0.054133,-0.01841 -0.1085287,-0.037085 -0.16319,-0.056024 -0.04,-0.059622 -0.080264,-0.1195067 -0.1207923,-0.1796571 -0.022572,-0.044955 -0.045405,-0.090173 -0.068504,-0.1356564 0.00723,-0.090955 0.014203,-0.1821704 0.020907,-0.2736523 0.022532,-0.055624 0.0448,-0.1115109 0.066803,-0.1676632 0.1385509,-0.7185656 0.2768309,-1.437365 0.4148492,-2.15644323 0.019246,0.001352 0.038226,0.002439 0.056943,0.003261 0.2161997,0.0554409 0.4321264,0.11061512 0.6477928,0.16552582 0.020915,0.00109 0.041566,0.001913 0.061954,0.002474 z" />
    <path
       style="opacity:0.995;fill:#ffffff;fill-opacity:1;fill-rule:evenodd;stroke:#000000;stroke-width:0.50000001;stroke-linecap:round;stroke-linejoin:round;stroke-miterlimit:4;stroke-dasharray:none;stroke-opacity:1;paint-order:markers stroke fill"
       d="M 8.4381779,1.3297526 C 8.0727797,1.7148557 8.0907092,2.3419699 7.9291958,2.8329739 7.4110059,5.3163254 6.8945833,7.8016217 6.3932289,10.287543 c -0.2310464,1.031876 0.6018198,2.224868 1.7153592,2.110595 2.5162769,0.508475 4.9339529,1.435021 7.4579529,1.909859 0.484196,0.160658 0.587517,-0.394811 0.705066,-0.722141 0.158259,-0.558323 0.432591,-1.123722 0.44131,-1.703261 -0.866386,-0.423319 -1.846219,-0.622891 -2.76563,-0.92782 -0.794903,-0.273363 -1.666033,-0.394457 -2.401199,-0.806257 -0.02844,-0.2446385 0.404294,-0.3020024 0.549994,-0.4409447 1.966549,-1.0857611 4.078185,-1.9040113 6.282281,-2.3517522 2.786873,-0.6527866 5.68836,-0.2834575 8.4493,0.3119575 2.134341,0.5555982 4.116382,1.5931301 5.980532,2.7514094 1.579191,1.089657 2.929847,2.484171 4.180793,3.929843 2.195088,2.709198 3.534859,6.069741 3.988387,9.514494 0.09834,1.807451 0.08439,3.630657 -0.111763,5.431314 -0.635844,3.65196 -2.269081,7.141723 -4.764566,9.89497 -2.116541,2.317444 -4.860673,4.009171 -7.775173,5.133649 -2.845788,0.956337 -5.906461,1.360552 -8.886556,0.881756 -3.52047,-0.432921 -6.894504,-1.897589 -9.6112456,-4.178609 -0.8851437,-0.660472 -1.5854847,-1.564562 -2.5421016,-2.12212 -0.6261353,-0.145734 -1.2755338,0.194654 -1.7948404,0.518799 -0.7547969,0.595324 -0.4962374,1.809924 0.135498,2.402751 2.149895,2.295908 4.8489626,4.042196 7.7135116,5.313359 2.603283,1.071874 5.414692,1.597495 8.21733,1.760028 4.307766,-0.0029 8.631861,-1.167799 12.309677,-3.421462 4.511238,-2.823294 8.02128,-7.232831 9.631477,-12.316772 0.780675,-2.286925 1.113237,-4.706744 1.046261,-7.119519 C 44.612314,20.871402 42.629705,15.785788 39.388615,11.796183 37.573092,9.6678497 35.435072,7.8011483 32.975666,6.4511445 28.993106,4.1952421 24.299828,3.2998991 19.755316,3.6751301 17.038597,3.9468962 14.387118,4.7611225 11.918402,5.911865 11.318747,6.1714256 10.788626,6.631502 10.1789,6.8321395 10.129285,6.199361 10.371242,5.5445488 10.446141,4.9078589 10.582847,3.9409639 10.880333,2.9779289 10.866699,1.9997829 10.57399,1.7242919 10.071965,1.7396293 9.6986504,1.5949304 9.28118,1.4980004 8.8649342,1.3741964 8.4381779,1.3297526 Z"
       id="path2387"
       transform="scale(0.26458333)" />
  </g>
</svg>
